<?xml version="1.0" ?><!DOCTYPE svg  PUBLIC '-//W3C//DTD SVG 1.1//EN'  'http://www.w3.org/Graphics/SVG/1.1/DTD/svg11.dtd'><svg enable-background="new 0 0 512 512" height="512px" id="Layer_1" version="1.1" viewBox="0 0 512 512" width="512px" xml:space="preserve" xmlns="http://www.w3.org/2000/svg" xmlns:xlink="http://www.w3.org/1999/xlink"><g><path d="    M113,170H51.803C43.074,170,36,177.236,36,185.965v137.962C36,332.645,43.074,340,51.803,340H113" fill="none" stroke="#ccd4dc" stroke-linecap="round" stroke-linejoin="round" stroke-miterlimit="10" stroke-width="8"/><line fill="none" stroke="#ccd4dc" stroke-linecap="round" stroke-linejoin="round" stroke-miterlimit="10" stroke-width="8" x1="119" x2="119" y1="186" y2="323"/><line fill="none" stroke="#ccd4dc" stroke-linecap="round" stroke-linejoin="round" stroke-miterlimit="10" stroke-width="8" x1="129.206" x2="252.419" y1="172.543" y2="49.319"/><line fill="none" stroke="#ccd4dc" stroke-linecap="round" stroke-linejoin="round" stroke-miterlimit="10" stroke-width="8" x1="129.206" x2="252.419" y1="338.936" y2="462.16"/><path d="    M265.58,446.629" fill="none" stroke="#ccd4dc" stroke-linecap="round" stroke-linejoin="round" stroke-miterlimit="10" stroke-width="8"/><path d="    M265.58,65.382" fill="none" stroke="#ccd4dc" stroke-linecap="round" stroke-linejoin="round" stroke-miterlimit="10" stroke-width="8"/><path d="    M253.715,49.311c21.258,0,38.285,17.24,38.285,38.511v336.346c0,21.28-17.146,38.521-38.403,38.521" fill="none" stroke="#ccd4dc" stroke-linecap="round" stroke-linejoin="round" stroke-miterlimit="10" stroke-width="8"/><line fill="none" stroke="#ccd4dc" stroke-linecap="round" stroke-linejoin="round" stroke-miterlimit="10" stroke-width="8" x1="252" x2="252" y1="71" y2="442"/><path d="    M323.125,183.086c39.704,0,71.861,32.167,71.861,71.859s-32.157,71.87-71.861,71.87" fill="none" stroke="#ccd4dc" stroke-linecap="round" stroke-linejoin="round" stroke-miterlimit="10" stroke-width="8"/></g></svg>